<svg width="1401" height="1033" viewBox="0 0 1401 1033" fill="none" xmlns="http://www.w3.org/2000/svg">
<g opacity="0.6">
<path d="M867.94 1190.3C788.213 1190.3 711.196 1171.65 639.024 1134.86C617.469 1123.87 596.275 1111.15 575.873 1096.99C540.966 1106.11 504.843 1110.74 468.334 1110.74C391.695 1110.74 319.666 1092.58 254.246 1056.75C189.186 1021.12 134.184 969.933 90.7678 904.598C32.866 817.466 0.984375 707.946 0.984375 596.204C0.984375 484.461 32.893 374.904 90.831 287.79C179.156 154.964 313.229 81.8083 468.351 81.8083C504.014 81.8083 539.372 86.2324 573.63 94.9792C593.942 80.6698 615.074 67.842 636.593 56.7538C708.756 19.5651 785.998 0.711548 866.184 0.711548C946.37 0.711548 1020.39 19.0098 1091.35 55.0971C1156.96 88.4722 1214.64 135.259 1262.77 194.143C1351.32 302.46 1400.08 445.246 1400.03 596.204C1400.02 669.812 1388.8 741.034 1366.69 807.887C1343.47 878.099 1308.96 941.667 1264.07 996.839C1215.96 1055.97 1158.21 1102.88 1092.42 1136.27C1021.79 1172.12 946.298 1190.31 868.021 1190.32H867.94V1190.3Z" stroke="url(#paint0_linear_258_591)" stroke-miterlimit="10"/>
<path d="M867.94 1164.06C792.184 1164.06 718.975 1146.32 650.359 1111.34C626.41 1099.15 603.019 1084.76 580.662 1068.48C544.387 1079.1 506.661 1084.49 468.334 1084.49C395.927 1084.49 327.932 1067.37 266.249 1033.58C204.862 999.966 152.911 951.588 111.845 889.789C56.8156 806.97 26.5095 702.707 26.5095 596.194C26.5095 489.681 56.8335 385.39 111.899 302.581C195.327 177.122 321.918 108.03 468.351 108.03C505.87 108.03 542.883 113.203 578.583 123.439C600.822 107.03 624.131 92.5082 648.028 80.1979C716.607 44.851 790.005 26.9323 866.184 26.9323C942.364 26.9323 1012.63 44.3142 1080.03 78.5967C1142.46 110.362 1197.38 154.909 1243.23 211.007C1327.93 314.603 1374.56 451.391 1374.51 596.176C1374.5 666.906 1363.74 735.296 1342.54 799.418C1320.33 866.557 1287.35 927.302 1244.51 979.975C1198.69 1036.29 1143.72 1080.94 1081.13 1112.72C1014.06 1146.77 942.354 1164.04 868.03 1164.06H867.958H867.94Z" stroke="url(#paint1_linear_258_591)" stroke-miterlimit="10"/>
<path d="M867.939 1137.83C796.154 1137.83 726.763 1121.01 661.694 1087.85C635.296 1074.39 609.689 1058.19 585.407 1039.61C547.817 1051.99 508.507 1058.27 468.334 1058.27C400.149 1058.27 336.197 1042.18 278.25 1010.44C220.536 978.836 171.638 933.272 132.922 875.008C80.756 796.512 52.0256 697.496 52.0256 596.212C52.0256 494.929 80.7736 395.895 132.968 317.408C211.497 199.317 330.597 134.287 468.351 134.287C507.742 134.287 546.413 140.35 583.498 152.317C607.628 133.574 633.126 117.238 659.461 103.67C724.458 70.1741 794.011 53.1902 866.175 53.1902C938.338 53.1902 1004.85 69.6558 1068.71 102.133C1127.96 132.279 1180.11 174.595 1223.69 227.907C1304.53 326.784 1349.03 457.574 1348.99 596.194C1348.97 664.056 1338.67 729.594 1318.36 790.995C1297.17 855.062 1265.74 912.983 1224.91 963.167C1181.39 1016.66 1129.21 1059.08 1069.82 1089.21C1006.28 1121.47 938.384 1137.83 868.012 1137.85H867.949L867.939 1137.83Z" stroke="url(#paint2_linear_258_591)" stroke-miterlimit="10"/>
<path d="M867.94 1111.59C800.116 1111.59 734.543 1095.7 673.03 1064.34C644.092 1049.6 616.254 1031.44 590.08 1010.25C551.256 1024.71 510.38 1032.03 468.324 1032.03C404.371 1032.03 344.453 1016.98 290.233 987.287C236.194 957.697 190.347 914.936 153.982 860.208C104.688 786.025 77.5327 692.266 77.5327 596.213C77.5327 500.159 104.697 406.382 154.018 332.217C227.641 221.502 339.267 160.527 468.334 160.527C509.642 160.527 549.951 167.625 588.351 181.658C614.327 160.305 642.03 141.997 670.888 127.123C732.301 95.4696 798 79.4205 866.166 79.4205C934.332 79.4205 997.078 94.9696 1057.38 125.643C1113.46 154.177 1162.84 194.264 1204.14 244.78C1281.13 338.937 1323.5 463.729 1323.47 596.176C1323.44 661.158 1313.61 723.865 1294.2 782.545C1274.02 843.53 1244.13 898.637 1205.33 946.331C1164.1 997.015 1114.71 1037.16 1058.52 1065.68C998.519 1096.13 934.422 1111.58 868.003 1111.6H867.94V1111.59Z" stroke="url(#paint3_linear_258_591)" stroke-miterlimit="10"/>
<path d="M867.94 1085.34C804.086 1085.34 742.322 1070.38 684.366 1040.84C652.798 1024.75 622.69 1004.42 594.69 980.289C554.732 997.218 512.307 1005.79 468.334 1005.79C408.612 1005.79 352.728 991.766 302.244 964.129C251.878 936.548 209.084 896.601 175.069 845.409C128.637 775.539 103.066 687.037 103.066 596.203C103.066 505.37 128.646 416.859 175.104 347.008C243.829 243.661 347.973 186.748 468.342 186.748C511.614 186.748 553.526 195.087 593.168 211.571C620.936 187.266 650.863 166.775 682.331 150.558C740.16 120.756 802.015 105.642 866.175 105.642C930.335 105.642 989.317 120.274 1046.06 149.142C1098.97 176.058 1145.58 213.913 1184.61 261.644C1257.73 351.08 1297.98 469.875 1297.95 596.158C1297.93 658.262 1288.54 718.126 1270.04 774.086C1250.88 831.997 1222.54 884.282 1185.77 929.486C1146.82 977.346 1100.23 1015.25 1047.24 1042.15C990.785 1070.8 930.487 1085.34 868.02 1085.34H867.966H867.94Z" stroke="url(#paint4_linear_258_591)" stroke-miterlimit="10"/>
<path d="M867.94 1059.12C808.057 1059.12 750.101 1045.06 695.701 1017.34C661.371 999.847 628.976 977.097 599.183 949.571C558.208 969.479 514.27 979.558 468.324 979.558C412.827 979.558 360.984 966.573 314.237 940.972C267.545 915.399 227.803 878.265 196.137 830.609C152.578 765.062 128.583 681.817 128.583 596.204C128.583 510.59 152.586 427.345 196.164 361.816C259.99 265.836 356.644 212.988 468.334 212.988C513.549 212.988 557.127 222.835 597.887 242.272C627.382 214.561 659.561 191.643 693.756 174.022C748.003 146.061 806.013 131.881 866.157 131.881C926.301 131.881 981.529 145.598 1034.72 172.66C1084.46 197.965 1128.3 233.58 1165.05 278.525C1234.3 363.241 1272.44 476.039 1272.4 596.148C1272.38 655.374 1263.44 712.407 1245.84 765.635C1227.71 820.474 1200.9 869.935 1166.16 912.651C1129.51 957.697 1085.69 993.35 1035.9 1018.62C982.988 1045.47 926.49 1059.1 867.976 1059.11H867.922L867.94 1059.12Z" stroke="url(#paint5_linear_258_591)" stroke-miterlimit="10"/>
<path d="M867.94 1032.88C812.019 1032.88 757.889 1019.74 707.036 993.83C669.798 974.857 635.062 949.339 603.55 917.852C561.692 941.398 516.269 953.319 468.334 953.319C365.323 953.319 276.143 904.487 217.214 815.809C176.518 754.575 154.109 676.588 154.109 596.203C154.109 515.819 176.527 437.841 217.233 376.625C276.152 288.022 365.333 239.227 468.334 239.227C510.56 239.227 551.22 248.583 589.17 267.048C593.709 269.252 598.139 271.547 602.515 273.953C633.648 242.262 668.115 216.578 705.2 197.474C755.863 171.365 810.028 158.121 866.166 158.121C922.304 158.121 973.768 170.921 1023.41 196.179C1069.97 219.863 1111.05 253.248 1145.52 295.407C1210.91 375.394 1246.92 482.202 1246.89 596.148C1246.87 652.505 1238.4 706.687 1221.7 757.203C1204.59 808.97 1179.31 855.608 1146.6 895.833C1112.25 938.056 1071.21 971.459 1024.62 995.099C975.244 1020.16 922.547 1032.87 867.985 1032.88H867.94Z" stroke="url(#paint6_linear_258_591)" stroke-miterlimit="10"/>
<path d="M867.939 1006.64C815.989 1006.64 765.667 994.423 718.372 970.321C678.018 949.756 640.888 921.046 607.718 884.81C605.53 886.245 603.333 887.651 601.109 889.03C560.359 914.279 515.684 927.079 468.324 927.079C374.003 927.079 292.304 882.301 238.274 801.01C200.449 744.089 179.616 671.358 179.616 596.204C179.616 521.049 200.449 448.328 238.292 391.434C292.314 310.198 374.003 265.466 468.324 265.466C506.751 265.466 543.73 273.981 578.249 290.771C588.108 295.565 597.625 300.933 606.971 306.977C639.663 270.519 676.47 241.633 716.625 220.938C763.714 196.67 814.017 184.369 866.157 184.369C918.296 184.369 965.988 196.262 1012.09 219.707C1055.47 241.781 1093.78 272.935 1125.98 312.3C1187.51 387.565 1221.39 488.376 1221.36 596.158C1221.35 649.636 1213.33 700.985 1197.52 748.772C1181.42 797.465 1157.69 841.28 1127 879.016C1094.94 918.425 1056.68 949.571 1013.3 971.59C967.475 994.848 918.576 1006.65 867.966 1006.66H867.922L867.939 1006.64Z" stroke="url(#paint7_linear_258_591)" stroke-miterlimit="10"/>
<path d="M867.94 980.41C771.412 980.41 681.286 934.308 611.661 849.972C603.811 856.108 595.95 861.606 587.946 866.567C551.229 889.317 510.983 900.849 468.334 900.849C382.701 900.849 308.484 860.134 259.361 786.21C224.408 733.612 205.15 666.129 205.15 596.203C205.15 526.278 224.408 458.815 259.369 406.233C308.484 332.374 382.701 291.696 468.334 291.696C502.952 291.696 536.265 299.36 567.346 314.474C582.481 321.832 596.995 330.856 611.257 341.797C679.719 256.96 769.36 210.59 866.175 210.59C912.949 210.59 958.237 221.567 1000.79 243.206C1041 263.662 1076.55 292.585 1106.46 329.172C1164.14 399.718 1195.87 494.531 1195.86 596.138C1195.85 646.739 1188.29 695.247 1173.38 740.313C1158.3 785.933 1136.11 826.925 1107.44 862.17C1077.67 898.767 1042.21 927.662 1002.03 948.053C959.74 969.516 914.641 980.4 867.985 980.41H867.949H867.94Z" stroke="url(#paint8_linear_258_591)" stroke-miterlimit="10"/>
<path d="M867.939 954.171C771.647 954.171 682.042 903.959 615.371 812.708C604.242 823.011 590.629 834.265 574.765 844.085C542.082 864.337 506.265 874.6 468.324 874.6C391.38 874.6 324.645 837.949 280.429 771.402C248.34 723.115 230.665 660.891 230.665 596.194C230.665 531.498 248.34 469.292 280.438 421.033C324.655 354.541 391.38 317.926 468.334 317.926C537.337 317.926 585.254 351.57 615.327 379.087C680.638 287.318 769.62 236.82 866.166 236.82C908.978 236.82 950.466 246.881 989.462 266.716C1026.49 285.56 1059.28 312.243 1086.91 346.045C1140.73 411.87 1170.35 500.687 1170.33 596.129C1170.32 643.86 1163.2 689.527 1149.2 731.871C1135.13 774.418 1114.5 812.589 1087.85 845.344C1060.38 879.127 1027.69 905.764 990.722 924.525C951.979 944.193 910.679 954.161 867.966 954.171H867.93H867.939Z" stroke="url(#paint9_linear_258_591)" stroke-miterlimit="10"/>
<path d="M867.94 927.931C779.164 927.931 696.187 880.681 634.288 794.892L631.334 790.792C627.031 784.812 622.655 778.741 618.451 773.169C590.638 802.083 544.693 848.361 468.334 848.361C400.078 848.361 340.833 815.772 301.506 756.602C272.289 712.629 256.191 655.661 256.191 596.194C256.191 536.727 272.281 479.778 301.506 435.842C340.825 376.718 400.068 344.166 468.334 344.166C544.216 344.166 590.495 389.638 618.72 418.766C623.132 412.814 627.679 406.326 632.154 399.94L634.387 396.755C694.918 310.541 777.229 263.059 866.166 263.059C905.026 263.059 942.697 272.204 978.144 290.234C1012 307.459 1042.02 331.912 1067.37 362.927C1117.33 424.032 1144.82 506.85 1144.81 596.12C1144.8 640.973 1138.14 683.798 1125.04 723.42C1111.99 762.896 1092.89 798.242 1068.28 828.508C1043.09 859.468 1013.2 883.856 979.422 900.998C944.218 918.86 906.718 927.931 867.967 927.931H867.93H867.94Z" stroke="url(#paint10_linear_258_591)" stroke-miterlimit="10"/>
<path d="M867.94 901.701C787.448 901.701 711.745 858.219 654.779 779.269L651.836 775.177C641.815 761.257 631.461 746.874 622.448 737.73C621.538 736.804 620.71 736.008 619.98 735.332C614.183 740.284 605.359 749.466 601.928 753.038C575.494 780.555 535.545 822.14 468.324 822.14C408.757 822.14 356.995 793.615 322.574 741.812C296.221 702.16 281.708 650.44 281.708 596.204C281.708 541.966 296.221 490.283 322.574 450.66C356.986 398.912 408.757 370.405 468.334 370.405C536.013 370.405 576.475 412.277 603.252 439.989C606.493 443.348 614.615 451.752 620.35 456.797C621.205 455.991 622.159 455.047 623.222 453.946C632.64 444.126 642.921 429.455 652.871 415.276L655.095 412.111C710.692 332.92 785.656 289.308 866.175 289.308C901.073 289.308 934.935 297.536 966.826 313.761C997.501 329.366 1024.76 351.598 1047.83 379.818C1093.93 436.203 1119.3 513.024 1119.29 596.129C1119.28 638.103 1113.08 678.097 1100.88 714.989C1088.85 751.391 1071.29 783.924 1048.71 811.682C1025.81 839.827 998.699 861.967 968.131 877.479C936.475 893.547 902.775 901.701 867.966 901.701H867.94Z" stroke="url(#paint11_linear_258_591)" stroke-miterlimit="10"/>
<path d="M867.94 875.462C795.731 875.462 727.313 835.745 675.281 763.636L672.346 759.555C661.748 744.838 650.8 729.631 640.384 719.061C629.246 707.76 623.502 706.538 621.548 706.538C612.292 706.538 604 713.545 583.769 734.602C558.919 760.47 524.876 795.901 468.325 795.901C417.445 795.901 373.165 771.439 343.652 727.012C320.171 691.675 307.232 645.221 307.232 596.204C307.232 547.186 320.162 500.77 343.643 465.459C373.157 421.079 417.437 396.636 468.334 396.636C525.39 396.636 559.927 432.38 585.146 458.471C604.819 478.834 613.273 486.063 621.511 486.063C623.087 486.063 629.192 485.072 641.392 472.364C652.196 461.1 663.064 445.597 673.579 430.603L675.795 427.438C726.457 355.263 794.065 315.53 866.166 315.53C897.103 315.53 927.157 322.841 955.5 337.261C983.005 351.256 1007.5 371.247 1028.29 396.682C1070.52 448.346 1093.76 519.17 1093.75 596.101C1093.74 635.197 1088.01 672.348 1076.7 706.529C1065.69 739.849 1049.67 769.569 1029.12 794.836C1008.5 820.168 984.186 840.05 956.815 853.943C928.696 868.215 898.804 875.452 867.949 875.452H867.922L867.94 875.462Z" stroke="url(#paint12_linear_258_591)" stroke-miterlimit="10"/>
<path d="M867.94 849.222C804.015 849.222 742.88 813.283 695.782 748.003L692.856 743.94C670.329 712.656 647.037 680.299 621.548 680.299C601.101 680.299 586.974 693.923 565.617 716.155C542.721 739.989 514.216 769.652 468.334 769.652C426.143 769.652 389.354 749.253 364.729 712.203C344.111 681.179 332.757 639.983 332.757 596.194C332.757 552.407 344.111 511.247 364.711 480.259C389.327 443.246 426.125 422.866 468.334 422.866C514.774 422.866 543.747 452.863 567.04 476.956C588.208 498.863 602.163 512.293 621.511 512.293C647.757 512.293 672.472 477.039 694.278 445.94L696.493 442.784C742.222 377.643 802.484 341.769 866.166 341.769C893.141 341.769 919.386 348.164 944.182 360.78C968.51 373.154 990.235 390.916 1008.76 413.564C1047.13 460.508 1068.26 525.333 1068.24 596.101C1068.23 632.327 1062.96 666.638 1052.56 698.088C1042.56 728.336 1028.09 755.232 1009.55 778.01C991.235 800.519 969.698 818.152 945.532 830.414C920.962 842.891 894.86 849.213 867.958 849.213H867.94V849.222Z" stroke="url(#paint13_linear_258_591)" stroke-miterlimit="10"/>
<path d="M1042.71 596.093C1042.66 810.784 842.613 907.467 716.274 732.371C689.651 695.469 661.334 654.059 621.538 654.059C556.254 654.059 537.706 743.422 468.315 743.422C321.674 743.422 321.494 449.105 468.315 449.105C538.246 449.105 558.054 538.532 621.494 538.532C661.956 538.532 691.398 494.846 717.175 458.139C840.532 282.422 1042.76 382.475 1042.7 596.093H1042.71Z" stroke="url(#paint14_linear_258_591)" stroke-miterlimit="10"/>
</g>
<defs>
<linearGradient id="paint0_linear_258_591" x1="139.736" y1="1263.39" x2="745.876" y2="-397.958" gradientUnits="userSpaceOnUse">
<stop offset="0.0885417" stop-color="#5B8281" stop-opacity="0.1"/>
<stop offset="0.34375" stop-color="#032B1E"/>
<stop offset="0.661458" stop-color="#5B8281" stop-opacity="0.1"/>
<stop offset="1" stop-color="#5B8281" stop-opacity="0.37"/>
</linearGradient>
<linearGradient id="paint1_linear_258_591" x1="160.199" y1="1233.91" x2="736.078" y2="-357.098" gradientUnits="userSpaceOnUse">
<stop offset="0.0885417" stop-color="#5B8281" stop-opacity="0.1"/>
<stop offset="0.34375" stop-color="#032B1E"/>
<stop offset="0.661458" stop-color="#5B8281" stop-opacity="0.1"/>
<stop offset="1" stop-color="#5B8281" stop-opacity="0.37"/>
</linearGradient>
<linearGradient id="paint2_linear_258_591" x1="180.653" y1="1204.47" x2="726.316" y2="-316.139" gradientUnits="userSpaceOnUse">
<stop offset="0.0885417" stop-color="#5B8281" stop-opacity="0.1"/>
<stop offset="0.34375" stop-color="#032B1E"/>
<stop offset="0.661458" stop-color="#5B8281" stop-opacity="0.1"/>
<stop offset="1" stop-color="#5B8281" stop-opacity="0.37"/>
</linearGradient>
<linearGradient id="paint3_linear_258_591" x1="201.099" y1="1175.01" x2="716.578" y2="-275.136" gradientUnits="userSpaceOnUse">
<stop offset="0.0885417" stop-color="#5B8281" stop-opacity="0.1"/>
<stop offset="0.541667" stop-color="#5B8281"/>
<stop offset="0.71875" stop-color="#5B8281" stop-opacity="0.1"/>
<stop offset="1" stop-color="#5B8281" stop-opacity="0.37"/>
</linearGradient>
<linearGradient id="paint4_linear_258_591" x1="221.57" y1="1145.53" x2="706.929" y2="-234.058" gradientUnits="userSpaceOnUse">
<stop offset="0.0885417" stop-color="#5B8281" stop-opacity="0.1"/>
<stop offset="0.34375" stop-color="#032B1E"/>
<stop offset="0.661458" stop-color="#5B8281" stop-opacity="0.1"/>
<stop offset="1" stop-color="#5B8281" stop-opacity="0.37"/>
</linearGradient>
<linearGradient id="paint5_linear_258_591" x1="242.021" y1="1116.08" x2="697.323" y2="-192.865" gradientUnits="userSpaceOnUse">
<stop offset="0.0885417" stop-color="#5B8281" stop-opacity="0.1"/>
<stop offset="0.541667" stop-color="#5B8281"/>
<stop offset="0.71875" stop-color="#5B8281" stop-opacity="0.1"/>
<stop offset="1" stop-color="#5B8281" stop-opacity="0.37"/>
</linearGradient>
<linearGradient id="paint6_linear_258_591" x1="262.486" y1="1086.61" x2="687.775" y2="-151.578" gradientUnits="userSpaceOnUse">
<stop offset="0.0885417" stop-color="#5B8281" stop-opacity="0.1"/>
<stop offset="0.34375" stop-color="#032B1E"/>
<stop offset="0.661458" stop-color="#5B8281" stop-opacity="0.1"/>
<stop offset="1" stop-color="#5B8281" stop-opacity="0.37"/>
</linearGradient>
<linearGradient id="paint7_linear_258_591" x1="282.93" y1="1057.17" x2="678.298" y2="-110.159" gradientUnits="userSpaceOnUse">
<stop offset="0.0885417" stop-color="#5B8281" stop-opacity="0.1"/>
<stop offset="0.541667" stop-color="#5B8281"/>
<stop offset="0.71875" stop-color="#5B8281" stop-opacity="0.1"/>
<stop offset="1" stop-color="#5B8281" stop-opacity="0.37"/>
</linearGradient>
<linearGradient id="paint8_linear_258_591" x1="303.404" y1="1027.7" x2="668.937" y2="-68.6336" gradientUnits="userSpaceOnUse">
<stop offset="0.0885417" stop-color="#5B8281" stop-opacity="0.1"/>
<stop offset="0.34375" stop-color="#032B1E"/>
<stop offset="0.661458" stop-color="#5B8281" stop-opacity="0.1"/>
<stop offset="1" stop-color="#5B8281" stop-opacity="0.37"/>
</linearGradient>
<linearGradient id="paint9_linear_258_591" x1="323.857" y1="998.237" x2="659.672" y2="-26.937" gradientUnits="userSpaceOnUse">
<stop offset="0.0885417" stop-color="#5B8281" stop-opacity="0.1"/>
<stop offset="0.34375" stop-color="#032B1E"/>
<stop offset="0.661458" stop-color="#5B8281" stop-opacity="0.1"/>
<stop offset="1" stop-color="#5B8281" stop-opacity="0.37"/>
</linearGradient>
<linearGradient id="paint10_linear_258_591" x1="344.32" y1="968.774" x2="650.538" y2="14.9525" gradientUnits="userSpaceOnUse">
<stop offset="0.0885417" stop-color="#5B8281" stop-opacity="0.1"/>
<stop offset="0.34375" stop-color="#032B1E"/>
<stop offset="0.661458" stop-color="#5B8281" stop-opacity="0.1"/>
<stop offset="1" stop-color="#5B8281" stop-opacity="0.37"/>
</linearGradient>
<linearGradient id="paint11_linear_258_591" x1="364.774" y1="939.321" x2="641.557" y2="57.0679" gradientUnits="userSpaceOnUse">
<stop offset="0.0885417" stop-color="#5B8281" stop-opacity="0.1"/>
<stop offset="0.34375" stop-color="#032B1E"/>
<stop offset="0.661458" stop-color="#5B8281" stop-opacity="0.1"/>
<stop offset="1" stop-color="#5B8281" stop-opacity="0.37"/>
</linearGradient>
<linearGradient id="paint12_linear_258_591" x1="385.236" y1="909.859" x2="632.803" y2="99.4134" gradientUnits="userSpaceOnUse">
<stop offset="0.0885417" stop-color="#5B8281" stop-opacity="0.1"/>
<stop offset="0.34375" stop-color="#032B1E"/>
<stop offset="0.661458" stop-color="#5B8281" stop-opacity="0.1"/>
<stop offset="1" stop-color="#5B8281" stop-opacity="0.37"/>
</linearGradient>
<linearGradient id="paint13_linear_258_591" x1="405.699" y1="880.395" x2="624.277" y2="142.081" gradientUnits="userSpaceOnUse">
<stop offset="0.0885417" stop-color="#5B8281" stop-opacity="0.1"/>
<stop offset="0.34375" stop-color="#032B1E"/>
<stop offset="0.661458" stop-color="#5B8281" stop-opacity="0.1"/>
<stop offset="1" stop-color="#5B8281" stop-opacity="0.37"/>
</linearGradient>
<linearGradient id="paint14_linear_258_591" x1="426.148" y1="850.932" x2="616.056" y2="185.115" gradientUnits="userSpaceOnUse">
<stop offset="0.0885417" stop-color="#5B8281" stop-opacity="0.1"/>
<stop offset="0.34375" stop-color="#032B1E"/>
<stop offset="0.661458" stop-color="#5B8281" stop-opacity="0.1"/>
<stop offset="1" stop-color="#5B8281" stop-opacity="0.37"/>
</linearGradient>
</defs>
</svg>
