<svg width="144" height="144" viewBox="0 0 144 144" fill="none" xmlns="http://www.w3.org/2000/svg">
<g clip-path="url(#clip0_258_699)">
<g clip-path="url(#clip1_258_699)">
<path opacity="0.2" d="M54.9993 122.994C51.1646 122.994 47.4247 121.902 44.192 119.834C36.7791 115.091 33.29 105.878 35.7089 97.4169L38.022 89.324C35.146 87.6073 32.6601 85.2441 30.793 82.4461C28.7474 79.3806 27.4767 75.8191 27.1088 72.1516C26.7465 68.4786 27.2927 64.7387 28.6917 61.3276C28.7252 61.2384 40.1678 34.2341 40.1678 34.2341C43.3169 26.8045 50.5683 22 58.6445 22H86.4959C93.502 22 99.8838 25.556 103.562 31.5142C106.126 35.6666 107.068 40.4655 106.338 45.1195C106.957 45.465 107.559 45.844 108.15 46.2509C111.85 48.8036 114.682 52.3652 116.332 56.5454C117.981 60.7201 118.355 65.2459 117.402 69.6379C116.443 74.0467 114.225 78.0207 110.992 81.1307C110.736 81.376 110.457 81.6324 110.167 81.8832L68.0973 118.134C64.4578 121.272 59.8038 123 54.9993 123V122.994Z" stroke="url(#paint0_linear_258_699)" stroke-linecap="round" stroke-linejoin="round"/>
<path opacity="0.4" d="M54.9993 116.306C52.441 116.306 49.9496 115.576 47.7926 114.199C42.8488 111.039 40.5246 104.891 42.1354 99.2563L46.0871 85.4281C44.6714 85.1104 43.3114 84.6032 42.0462 83.9177C39.7666 82.6915 37.7991 80.8968 36.3555 78.7342C34.9175 76.5772 34.0201 74.0691 33.7638 71.4885C33.5074 68.9023 33.8919 66.266 34.8785 63.8693C34.8933 63.8321 38.7094 54.8251 46.3267 36.8483C48.428 31.8933 53.2603 28.6885 58.6445 28.6885H86.496C91.1667 28.6885 95.4194 31.0628 97.8773 35.0313C100.33 39.0053 100.553 43.8655 98.4626 48.0457L97.9052 49.1549C100.218 49.5339 102.409 50.4145 104.354 51.7578C106.957 53.5581 108.952 56.0606 110.117 59.0035C111.282 61.9408 111.538 65.1289 110.869 68.2223C110.195 71.3268 108.634 74.1192 106.355 76.3152C106.182 76.4824 105.998 76.6496 105.803 76.8169L63.7276 113.068C61.3031 115.158 58.1986 116.312 54.9937 116.312L54.9993 116.306Z" stroke="url(#paint1_linear_258_699)" stroke-linecap="round" stroke-linejoin="round"/>
<path opacity="0.6" d="M54.9993 109.618C53.7508 109.618 52.5023 109.272 51.3987 108.564C48.9073 106.97 47.7591 103.933 48.5729 101.09L54.8488 79.13H49.5873C48.0434 79.1244 46.5497 78.7398 45.2231 78.0264C43.9022 77.3186 42.7596 76.2763 41.9235 75.0222C41.0875 73.7681 40.5691 72.319 40.4187 70.8197C40.2682 69.3204 40.4967 67.7932 41.0652 66.4054C41.0763 66.3831 52.4856 39.4512 52.4856 39.4512C53.5334 36.9765 55.958 35.3713 58.6445 35.3713H86.4959C88.8146 35.3713 90.966 36.5697 92.1866 38.5427C93.4073 40.5158 93.5132 42.9794 92.482 45.0528L87.1926 55.6259C87.1926 55.6259 95.4193 55.6259 95.4472 55.6259C97.2809 55.6482 99.0478 56.2168 100.558 57.2534C102.069 58.2957 103.222 59.7449 103.897 61.4504C104.571 63.1559 104.722 65.0008 104.337 66.7955C103.947 68.5958 103.044 70.2122 101.723 71.483C101.634 71.5666 101.545 71.6502 101.45 71.7338L59.369 107.99C58.1205 109.066 56.5655 109.612 54.9993 109.612V109.618Z" stroke="url(#paint2_linear_258_699)" stroke-linecap="round" stroke-linejoin="round"/>
<path d="M58.6438 42.0652L47.2513 68.9524C47.0952 69.337 47.0339 69.755 47.0729 70.1675C47.112 70.5799 47.2569 70.9757 47.4854 71.3212C47.7139 71.6668 48.026 71.951 48.3939 72.1461C48.7618 72.3412 49.1686 72.4471 49.5811 72.4471H63.7103L54.9987 102.929L97.0796 66.6728C97.4419 66.3272 97.6927 65.8758 97.7986 65.3853C97.9045 64.8948 97.8655 64.382 97.6816 63.9194C97.4977 63.4512 97.18 63.0499 96.7675 62.7657C96.3551 62.4814 95.8646 62.3254 95.363 62.3198H76.3736L86.5009 42.0652H58.6494H58.6438Z" stroke="#97FCE4" stroke-linecap="round" stroke-linejoin="round"/>
</g>
</g>
<defs>
<linearGradient id="paint0_linear_258_699" x1="40.0285" y1="128.858" x2="103.941" y2="3.27257" gradientUnits="userSpaceOnUse">
<stop stop-color="#7DFFD0"/>
<stop offset="0.55" stop-color="#7DFFD0" stop-opacity="0.2"/>
<stop offset="1" stop-color="#7DFFD0" stop-opacity="0.46"/>
</linearGradient>
<linearGradient id="paint1_linear_258_699" x1="43.5957" y1="121.857" x2="99.6776" y2="11.6554" gradientUnits="userSpaceOnUse">
<stop stop-color="#8BF1E4"/>
<stop offset="0.55" stop-color="#8BF1E4" stop-opacity="0.22"/>
<stop offset="1" stop-color="#8BF1E4" stop-opacity="0.51"/>
</linearGradient>
<linearGradient id="paint2_linear_258_699" x1="47.1572" y1="114.851" x2="95.4082" y2="20.0438" gradientUnits="userSpaceOnUse">
<stop stop-color="#7DFFD0"/>
<stop offset="0.55" stop-color="#7DFFD0" stop-opacity="0.2"/>
<stop offset="1" stop-color="#7DFFD0" stop-opacity="0.46"/>
</linearGradient>
<clipPath id="clip0_258_699">
<rect width="144" height="144" fill="white"/>
</clipPath>
<clipPath id="clip1_258_699">
<rect width="144" height="144" fill="white"/>
</clipPath>
</defs>
</svg>
