<svg width="144" height="144" viewBox="0 0 144 144" fill="none" xmlns="http://www.w3.org/2000/svg">
<g clip-path="url(#clip0_258_682)">
<mask id="mask0_258_682" style="mask-type:luminance" maskUnits="userSpaceOnUse" x="24" y="24" width="96" height="96">
<path d="M119.984 24H24V120H119.984V24Z" fill="white"/>
</mask>
<g mask="url(#mask0_258_682)">
<path opacity="0.2" d="M91.1558 119.731C84.008 119.731 77.2585 117.12 71.9945 112.357C66.736 117.126 59.9865 119.731 52.8333 119.731C45.2011 119.731 38.0264 116.76 32.6279 111.361C27.2401 105.963 24.269 98.7882 24.269 91.156C24.269 84.0082 26.8795 77.2587 31.6429 71.9948C26.8795 66.7362 24.269 59.9921 24.269 52.8389C24.269 45.2067 27.2401 38.032 32.6386 32.6335C38.0318 27.2403 45.2065 24.2693 52.8387 24.2693C59.9865 24.2693 66.736 26.8797 71.9999 31.6431C77.2585 26.8797 84.008 24.2693 91.1558 24.2693C98.788 24.2693 105.963 27.2403 111.356 32.6389C122.153 43.4359 122.487 60.7994 112.346 72.0001C122.481 83.2009 122.153 100.564 111.356 111.361C105.957 116.76 98.7826 119.731 91.1504 119.731H91.1558Z" stroke="url(#paint0_linear_258_682)" stroke-miterlimit="10"/>
<path opacity="0.4" d="M91.1559 113.272C85.2515 113.272 79.6969 110.974 75.5202 106.797L71.9947 103.272L68.4692 106.797C64.2925 110.974 58.7379 113.272 52.8334 113.272C46.929 113.272 41.3744 110.974 37.1977 106.797C33.0209 102.62 30.7227 97.0711 30.7227 91.1613C30.7227 85.2515 33.0209 79.7022 37.1977 75.5255L40.7231 72.0001L37.1977 68.4746C33.0209 64.2979 30.7227 58.7486 30.7227 52.8388C30.7227 46.929 33.0209 41.3797 37.1977 37.203C41.3744 33.0263 46.929 30.728 52.8334 30.728C58.7379 30.728 64.2925 33.0263 68.4692 37.203L71.9947 40.7285L75.5202 37.203C79.6969 33.0263 85.2515 30.728 91.1559 30.728C97.0604 30.728 102.615 33.0263 106.792 37.203C115.414 45.8256 115.414 59.852 106.792 68.4746L103.266 72.0001L106.792 75.5255C115.414 84.1481 115.414 98.1745 106.792 106.797C102.615 110.974 97.0604 113.272 91.1559 113.272Z" stroke="url(#paint1_linear_258_682)" stroke-miterlimit="10"/>
<path opacity="0.6" d="M91.1556 106.813C86.9735 106.813 83.0443 105.182 80.0894 102.227L71.9997 94.1379L63.91 102.227C60.9551 105.182 57.0259 106.813 52.8438 106.813C48.6617 106.813 44.7326 105.182 41.7777 102.227C38.8228 99.2727 37.1919 95.3382 37.1919 91.1615C37.1919 86.9848 38.8228 83.0503 41.7777 80.0953L49.8674 72.0056L41.7777 63.9159C38.8228 60.961 37.1919 57.0319 37.1919 52.8498C37.1919 48.6677 38.8174 44.7385 41.7777 41.7836C44.7326 38.8287 48.6617 37.1978 52.8438 37.1978C57.0259 37.1978 60.9551 38.8287 63.91 41.7836L71.9997 49.8733L80.0894 41.7836C83.0443 38.8287 86.9788 37.1978 91.1556 37.1978C95.3323 37.1978 99.2668 38.8287 102.222 41.7836C108.325 47.8872 108.325 57.8177 102.222 63.9213L94.132 72.011L102.222 80.1007C108.325 86.2043 108.325 96.1348 102.222 102.238C99.2614 105.193 95.3323 106.824 91.1502 106.824L91.1556 106.813Z" stroke="url(#paint2_linear_258_682)" stroke-miterlimit="10"/>
<path d="M84.9982 72.0002L97.6575 59.3408C101.248 55.7508 101.248 49.9271 97.6575 46.337C94.0675 42.747 88.2437 42.747 84.6537 46.337L71.9944 58.9964L59.335 46.337C55.745 42.747 49.9212 42.747 46.3312 46.337C42.7412 49.9271 42.7412 55.7508 46.3312 59.3408L58.9905 72.0002L46.3312 84.6595C42.7412 88.2496 42.7412 94.0733 46.3312 97.6633C49.9212 101.253 55.745 101.253 59.335 97.6633L71.9944 85.004L84.6537 97.6633C88.2437 101.253 94.0675 101.253 97.6575 97.6633C101.248 94.0733 101.248 88.2496 97.6575 84.6595L84.9982 72.0002Z" stroke="#97FCE4" stroke-miterlimit="10"/>
</g>
</g>
<defs>
<linearGradient id="paint0_linear_258_682" x1="37.9458" y1="125.268" x2="94.5399" y2="1.75798" gradientUnits="userSpaceOnUse">
<stop stop-color="#7DFFD0"/>
<stop offset="0.55" stop-color="#7DFFD0" stop-opacity="0.2"/>
<stop offset="1" stop-color="#7DFFD0" stop-opacity="0.46"/>
</linearGradient>
<linearGradient id="paint1_linear_258_682" x1="42.5501" y1="118.06" x2="91.4823" y2="11.2586" gradientUnits="userSpaceOnUse">
<stop stop-color="#7DFFD0"/>
<stop offset="0.55" stop-color="#7DFFD0" stop-opacity="0.2"/>
<stop offset="1" stop-color="#7DFFD0" stop-opacity="0.46"/>
</linearGradient>
<linearGradient id="paint2_linear_258_682" x1="47.1666" y1="110.862" x2="88.4459" y2="20.7807" gradientUnits="userSpaceOnUse">
<stop stop-color="#7DFFD0"/>
<stop offset="0.55" stop-color="#7DFFD0" stop-opacity="0.2"/>
<stop offset="1" stop-color="#7DFFD0" stop-opacity="0.46"/>
</linearGradient>
<clipPath id="clip0_258_682">
<rect width="144" height="144" fill="white"/>
</clipPath>
</defs>
</svg>
