<svg width="32" height="37" viewBox="0 0 32 37" fill="none" xmlns="http://www.w3.org/2000/svg">
<path fill-rule="evenodd" clip-rule="evenodd" d="M11.9999 4.6665C9.56587 4.6665 7.7242 5.07726 5.70611 6.06807C5.59083 6.12467 5.49433 6.21336 5.42825 6.3235C4.04267 8.63282 1.33325 15.0611 1.33325 22.6665C1.33325 22.8397 1.40063 23.006 1.52112 23.1304C2.78885 24.4389 3.94276 25.4015 5.17956 26.0808C6.42364 26.7641 7.72052 27.144 9.25365 27.3284C9.51463 27.3599 9.76968 27.2349 9.90492 27.0095L10.5864 25.8737C9.59435 25.5271 8.58249 25.066 7.95948 24.4429C7.56896 24.0524 7.56896 23.4193 7.95948 23.0288C8.35 22.6383 8.98317 22.6383 9.37369 23.0288C9.7134 23.3685 10.5116 23.7553 11.6388 24.1171L11.6402 24.1175C12.5715 24.3616 14.1946 24.6665 15.9999 24.6665C17.8053 24.6665 19.4281 24.3612 20.3594 24.1171H20.361C21.4882 23.7553 22.2865 23.3685 22.6262 23.0288C23.0167 22.6383 23.6498 22.6383 24.0403 23.0288C24.4309 23.4193 24.4309 24.0524 24.0403 24.4429C23.4174 25.066 22.4055 25.5271 21.4134 25.8737L22.095 27.0095C22.2302 27.2349 22.4853 27.3599 22.7462 27.3284C24.2794 27.144 25.5762 26.7641 26.8203 26.0808C28.0571 25.4015 29.211 24.4389 30.4787 23.1304C30.5993 23.006 30.6666 22.8397 30.6666 22.6665C30.6666 15.0611 27.9571 8.63282 26.5715 6.3235C26.5055 6.21336 26.409 6.12467 26.2938 6.06807C24.2757 5.07726 22.4339 4.6665 19.9999 4.6665C19.713 4.6665 19.4582 4.85012 19.3675 5.12235L18.9193 6.467C18.8094 6.43151 18.6881 6.39459 18.5562 6.35775C17.9181 6.17948 17.0229 5.99983 15.9999 5.99983C14.977 5.99983 14.0818 6.17948 13.4437 6.35775C13.3118 6.39459 13.1904 6.43151 13.0806 6.467L12.6324 5.12235C12.5416 4.85012 12.2869 4.6665 11.9999 4.6665ZM13.3333 16.9999C13.3333 18.2885 12.4378 19.3332 11.3333 19.3332C10.2287 19.3332 9.33325 18.2885 9.33325 16.9999C9.33325 15.7112 10.2287 14.6665 11.3333 14.6665C12.4378 14.6665 13.3333 15.7112 13.3333 16.9999ZM20.6666 19.3332C21.7711 19.3332 22.6666 18.2885 22.6666 16.9999C22.6666 15.7112 21.7711 14.6665 20.6666 14.6665C19.5621 14.6665 18.6666 15.7112 18.6666 16.9999C18.6666 18.2885 19.5621 19.3332 20.6666 19.3332Z" fill="#F6FEFD"/>
</svg>
