<svg width="32" height="37" viewBox="0 0 32 37" fill="none" xmlns="http://www.w3.org/2000/svg">
<path d="M1.3335 25.3341C22.1563 33.4161 28.0509 18.6329 27.8732 11.334C29.5645 10.8726 30.6668 9.72137 30.6668 8.54037C29.27 9.27435 28.5399 9.06575 27.8415 8.54037C29.3455 7.51605 29.27 6.05576 29.27 5.04832C28.5668 5.41693 27.2652 6.32819 25.7779 6.44516C24.7835 4.89023 22.2859 3.65152 18.7937 5.04833C15.3017 6.44515 14.6033 10.17 15.3017 12.0325C10.8319 12.0325 5.52398 7.37637 3.42874 5.04833C0.917684 8.63136 4.09448 12.1854 5.52398 13.4293C4.571 13.7143 3.42874 13.4293 2.73033 12.7309C2.73033 16.7189 6.2224 18.3181 7.61922 19.0167H4.82557C4.82557 21.8103 8.08482 22.9743 9.71445 23.2071C8.597 24.3245 4.09489 25.3341 1.3335 25.3341Z" fill="#F6FEFD"/>
</svg>
