<svg width="32" height="37" viewBox="0 0 32 37" fill="none" xmlns="http://www.w3.org/2000/svg">
<path fill-rule="evenodd" clip-rule="evenodd" d="M16.0001 30.6668C24.1003 30.6668 30.6668 24.1003 30.6668 16.0001C30.6668 7.9 24.1003 1.3335 16.0001 1.3335C7.9 1.3335 1.3335 7.9 1.3335 16.0001C1.3335 24.1003 7.9 30.6668 16.0001 30.6668ZM6.19225 15.2545C6.06532 15.3023 5.97625 15.4309 5.97625 15.5667C5.97625 15.7023 6.06532 15.8309 6.19225 15.8785L10.1749 17.3332L18.3803 13.0959C18.4665 13.053 18.5796 13.0824 18.6341 13.1619C18.6887 13.2415 18.6753 13.3575 18.6043 13.4225L13.0818 18.3759L19.2696 23.3585C19.3584 23.4231 19.4784 23.4393 19.5813 23.4011C19.6841 23.3628 19.7643 23.2721 19.7896 23.1652L23.0669 9.3813C23.0952 9.26336 23.054 9.13332 22.9629 9.05321C22.8719 8.97312 22.7376 8.94884 22.6243 8.99197L6.19225 15.2545Z" fill="#F6FEFD"/>
</svg>
