<svg width="32" height="37" viewBox="0 0 32 37" fill="none" xmlns="http://www.w3.org/2000/svg">
<path fill-rule="evenodd" clip-rule="evenodd" d="M17.3333 14.6665C17.3333 19.0848 13.7515 22.6665 9.33325 22.6665C4.91497 22.6665 1.33325 19.0848 1.33325 14.6665C1.33325 10.2482 4.91497 6.6665 9.33325 6.6665C13.7515 6.6665 17.3333 10.2482 17.3333 14.6665ZM26.3333 14.6665C26.3333 18.7167 24.6917 21.9999 22.6666 21.9999C20.6415 21.9999 18.9999 18.7167 18.9999 14.6665C18.9999 10.6164 20.6415 7.33316 22.6666 7.33316C24.6917 7.33316 26.3333 10.6164 26.3333 14.6665ZM29.3333 21.3332C30.0697 21.3332 30.6666 18.3484 30.6666 14.6665C30.6666 10.9846 30.0697 7.99983 29.3333 7.99983C28.5969 7.99983 27.9999 10.9846 27.9999 14.6665C27.9999 18.3484 28.5969 21.3332 29.3333 21.3332Z" fill="#F6FEFD"/>
</svg>
