<svg width="144" height="144" viewBox="0 0 144 144" fill="none" xmlns="http://www.w3.org/2000/svg">
<g clip-path="url(#clip0_258_724)">
<path opacity="0.2" d="M71.7336 118.515C66.6616 118.515 61.8682 116.82 58.0057 113.799C54.0986 116.848 49.2662 118.515 44.3057 118.515C32.0047 118.515 22 108.51 22 96.2144V47.3001C22 35.0047 32.0047 25 44.3057 25C49.2662 25 54.093 26.6665 58.0001 29.7153C61.8627 26.6944 66.6616 25 71.728 25C76.7945 25 82.1173 26.8839 86.147 30.3061L114.946 54.7632C119.946 59.0103 122.81 65.2027 122.81 71.7573C122.81 78.3119 119.946 84.5098 114.946 88.7513L86.147 113.208C82.1173 116.631 77.0007 118.515 71.728 118.515H71.7336Z" stroke="url(#paint0_linear_258_724)" stroke-miterlimit="10"/>
<path opacity="0.4" d="M71.7332 111.826C66.1986 111.826 61.3272 108.933 58.5515 104.58L54.3936 108.108C51.5734 110.505 47.9895 111.82 44.3053 111.82C35.694 111.82 28.688 104.82 28.688 96.2087V47.3C28.688 38.6943 35.694 31.6882 44.3053 31.6882C47.9895 31.6882 51.5734 33.0092 54.3936 35.4059L58.546 38.934C61.3216 34.581 66.193 31.6882 71.7276 31.6882C75.4118 31.6882 78.9956 33.0092 81.8159 35.4059L110.615 59.863C114.115 62.8337 116.122 67.17 116.122 71.7571C116.122 76.3442 114.115 80.6805 110.615 83.6513L81.8159 108.108C78.9956 110.505 75.4118 111.826 71.7276 111.826H71.7332Z" stroke="url(#paint1_linear_258_724)" stroke-miterlimit="10"/>
<path opacity="0.6" d="M44.3113 105.138C39.3898 105.138 35.3823 101.136 35.3823 96.2143V47.3001C35.3823 42.3785 39.3898 38.3767 44.3113 38.3767C46.4126 38.3767 48.4581 39.1291 50.0744 40.5002L62.8102 51.3131V47.2945C62.8102 42.373 66.8177 38.3711 71.7392 38.3711C73.8404 38.3711 75.886 39.1235 77.5023 40.4947L106.301 64.9518C108.302 66.6517 109.445 69.1264 109.445 71.7516C109.445 74.3768 108.297 76.8515 106.301 78.5515L77.5023 103.009C75.8915 104.38 73.846 105.132 71.7448 105.132C66.8232 105.132 62.8158 101.13 62.8158 96.2088V92.1902L50.08 103.003C48.4692 104.374 46.4237 105.127 44.3224 105.127L44.3113 105.138Z" stroke="url(#paint2_linear_258_724)" stroke-miterlimit="10"/>
<path d="M101.965 70.0629L86.7267 57.1265L73.1605 45.6058C71.7113 44.374 69.4874 45.4051 69.4874 47.3058V65.7768L59.2988 57.1265L45.7326 45.6058C44.2835 44.374 42.0596 45.4051 42.0596 47.3058V96.22C42.0596 98.1206 44.2835 99.1518 45.7326 97.92L59.2988 86.3993L69.4874 77.749V96.22C69.4874 98.1206 71.7113 99.1518 73.1605 97.92L86.7267 86.3993L101.965 73.4628C103.013 72.5711 103.013 70.9547 101.965 70.0629Z" stroke="#97FCE4" stroke-miterlimit="10"/>
</g>
<defs>
<linearGradient id="paint0_linear_258_724" x1="31.9979" y1="124.259" x2="82.844" y2="-3.48544" gradientUnits="userSpaceOnUse">
<stop stop-color="#7DFFD0"/>
<stop offset="0.55" stop-color="#7DFFD0" stop-opacity="0.2"/>
<stop offset="1" stop-color="#7DFFD0" stop-opacity="0.46"/>
</linearGradient>
<linearGradient id="paint1_linear_258_724" x1="37.3593" y1="116.749" x2="80.5522" y2="6.92108" gradientUnits="userSpaceOnUse">
<stop stop-color="#7DFFD0"/>
<stop offset="0.55" stop-color="#7DFFD0" stop-opacity="0.2"/>
<stop offset="1" stop-color="#7DFFD0" stop-opacity="0.46"/>
</linearGradient>
<linearGradient id="paint2_linear_258_724" x1="42.7275" y1="109.239" x2="78.2774" y2="17.335" gradientUnits="userSpaceOnUse">
<stop stop-color="#7DFFD0"/>
<stop offset="0.55" stop-color="#7DFFD0" stop-opacity="0.2"/>
<stop offset="1" stop-color="#7DFFD0" stop-opacity="0.46"/>
</linearGradient>
<clipPath id="clip0_258_724">
<rect width="144" height="144" fill="white"/>
</clipPath>
</defs>
</svg>
